<svg xmlns="http://www.w3.org/2000/svg" width="800" height="500" viewBox="0 0 800 500">
<rect width="100%" height="100%" fill="white"/>
<text x="400" y="30" text-anchor="middle" fill="#333" font-size="16" font-weight="bold" font-family="Arial, sans-serif">K-Means Clustering - Customer Segmentation</text>
<line x1="60" y1="50" x2="60" y2="460" stroke="#333" stroke-width="1"/>
<line x1="60" y1="460" x2="780" y2="460" stroke="#333" stroke-width="1"/>
<line x1="60" y1="460" x2="780" y2="460" stroke="#e0e0e0" stroke-width="1"/>
<line x1="56" y1="460" x2="60" y2="460" stroke="#999" stroke-width="1"/>
<text x="52" y="464" text-anchor="end" fill="#666" font-size="11" font-family="Arial, sans-serif">-2</text>
<line x1="60" y1="378" x2="780" y2="378" stroke="#e0e0e0" stroke-width="1"/>
<line x1="56" y1="378" x2="60" y2="378" stroke="#999" stroke-width="1"/>
<text x="52" y="382" text-anchor="end" fill="#666" font-size="11" font-family="Arial, sans-serif">5</text>
<line x1="60" y1="296" x2="780" y2="296" stroke="#e0e0e0" stroke-width="1"/>
<line x1="56" y1="296" x2="60" y2="296" stroke="#999" stroke-width="1"/>
<text x="52" y="300" text-anchor="end" fill="#666" font-size="11" font-family="Arial, sans-serif">13</text>
<line x1="60" y1="214" x2="780" y2="214" stroke="#e0e0e0" stroke-width="1"/>
<line x1="56" y1="214" x2="60" y2="214" stroke="#999" stroke-width="1"/>
<text x="52" y="218" text-anchor="end" fill="#666" font-size="11" font-family="Arial, sans-serif">20</text>
<line x1="60" y1="132" x2="780" y2="132" stroke="#e0e0e0" stroke-width="1"/>
<line x1="56" y1="132" x2="60" y2="132" stroke="#999" stroke-width="1"/>
<text x="52" y="136" text-anchor="end" fill="#666" font-size="11" font-family="Arial, sans-serif">28</text>
<line x1="60" y1="50" x2="780" y2="50" stroke="#e0e0e0" stroke-width="1"/>
<line x1="56" y1="50" x2="60" y2="50" stroke="#999" stroke-width="1"/>
<text x="52" y="54" text-anchor="end" fill="#666" font-size="11" font-family="Arial, sans-serif">35</text>
<line x1="60" y1="460" x2="60" y2="464" stroke="#999" stroke-width="1"/>
<text x="60" y="480" text-anchor="middle" fill="#666" font-size="11" font-family="Arial, sans-serif">-4</text>
<line x1="204" y1="460" x2="204" y2="464" stroke="#999" stroke-width="1"/>
<text x="204" y="480" text-anchor="middle" fill="#666" font-size="11" font-family="Arial, sans-serif">9</text>
<line x1="348" y1="460" x2="348" y2="464" stroke="#999" stroke-width="1"/>
<text x="348" y="480" text-anchor="middle" fill="#666" font-size="11" font-family="Arial, sans-serif">22</text>
<line x1="492" y1="460" x2="492" y2="464" stroke="#999" stroke-width="1"/>
<text x="492" y="480" text-anchor="middle" fill="#666" font-size="11" font-family="Arial, sans-serif">35</text>
<line x1="636" y1="460" x2="636" y2="464" stroke="#999" stroke-width="1"/>
<text x="636" y="480" text-anchor="middle" fill="#666" font-size="11" font-family="Arial, sans-serif">48</text>
<line x1="780" y1="460" x2="780" y2="464" stroke="#999" stroke-width="1"/>
<text x="780" y="480" text-anchor="middle" fill="#666" font-size="11" font-family="Arial, sans-serif">60</text>
<circle cx="125.607" cy="425.833" r="7" fill="#5470c6"/>
<circle cx="136.822" cy="414.812" r="7" fill="#5470c6"/>
<circle cx="131.215" cy="420.323" r="7" fill="#5470c6"/>
<circle cx="148.037" cy="403.79" r="7" fill="#5470c6"/>
<circle cx="142.43" cy="409.301" r="7" fill="#5470c6"/>
<circle cx="120" cy="425.833" r="7" fill="#5470c6"/>
<circle cx="125.607" cy="409.301" r="7" fill="#5470c6"/>
<circle cx="136.822" cy="420.323" r="7" fill="#5470c6"/>
<circle cx="237.757" cy="348.683" r="7" fill="#5470c6"/>
<circle cx="271.402" cy="326.64" r="7" fill="#5470c6"/>
<circle cx="260.187" cy="359.704" r="7" fill="#5470c6"/>
<circle cx="248.972" cy="337.661" r="7" fill="#5470c6"/>
<circle cx="282.617" cy="315.618" r="7" fill="#5470c6"/>
<circle cx="226.542" cy="348.683" r="7" fill="#5470c6"/>
<circle cx="271.402" cy="343.172" r="7" fill="#5470c6"/>
<circle cx="260.187" cy="326.64" r="7" fill="#5470c6"/>
<circle cx="607.85" cy="161.317" r="7" fill="#fac858"/>
<circle cx="663.925" cy="106.21" r="7" fill="#91cc75"/>
<circle cx="641.495" cy="128.253" r="7" fill="#fac858"/>
<circle cx="686.355" cy="84.1667" r="7" fill="#91cc75"/>
<circle cx="720" cy="106.21" r="7" fill="#91cc75"/>
<circle cx="630.28" cy="150.296" r="7" fill="#fac858"/>
<circle cx="663.925" cy="139.274" r="7" fill="#fac858"/>
<circle cx="697.57" cy="95.1882" r="7" fill="#91cc75"/>
<circle cx="195.35" cy="377.27" r="12" fill="#5470c6"/>
<circle cx="195.35" cy="377.27" r="12" fill="none" stroke="#fff" stroke-width="2"/>
<circle cx="195.35" cy="377.27" r="12" fill="none" stroke="#5470c6" stroke-width="1"/>
<circle cx="691.963" cy="97.9435" r="12" fill="#91cc75"/>
<circle cx="691.963" cy="97.9435" r="12" fill="none" stroke="#fff" stroke-width="2"/>
<circle cx="691.963" cy="97.9435" r="12" fill="none" stroke="#91cc75" stroke-width="1"/>
<circle cx="635.888" cy="144.785" r="12" fill="#fac858"/>
<circle cx="635.888" cy="144.785" r="12" fill="none" stroke="#fff" stroke-width="2"/>
<circle cx="635.888" cy="144.785" r="12" fill="none" stroke="#fac858" stroke-width="1"/>
<circle cx="670" cy="65" r="5" fill="#5470c6"/>
<text x="682" y="69" text-anchor="start" fill="#333" font-size="12" font-family="Arial, sans-serif">Cluster 1 (16)</text>
<circle cx="670" cy="85" r="5" fill="#91cc75"/>
<text x="682" y="89" text-anchor="start" fill="#333" font-size="12" font-family="Arial, sans-serif">Cluster 2 (4)</text>
<circle cx="670" cy="105" r="5" fill="#fac858"/>
<text x="682" y="109" text-anchor="start" fill="#333" font-size="12" font-family="Arial, sans-serif">Cluster 3 (4)</text>
</svg>
