<?xml version="1.0" encoding="UTF-8" standalone="no"?>
<!-- Created with Inkscape (http://www.inkscape.org/) -->

<svg
   width="48"
   height="48"
   viewBox="0 0 12.7 12.7"
   version="1.1"
   id="svg1"
   xmlns="http://www.w3.org/2000/svg"
   xmlns:svg="http://www.w3.org/2000/svg">
  <defs
     id="defs1" />
  <path
     id="ellipse1"
     style="display:inline;fill:#ce0033;fill-opacity:1;stroke:#000009;stroke-width:0;stroke-linecap:round;stroke-linejoin:round;paint-order:stroke fill markers"
     d="m 2.6413489,2.7508648 0.2511108,8.4904742 v 0.0073 h 0.0017 c 0.015434,0.512776 1.3660303,0.926412 3.3370896,0.926639 1.9710377,-2.11e-4 3.3026437,-0.413868 3.3180773,-0.926643 h 0.00172 v -0.0073 L 9.8210973,2.7508604 Z" />
  <ellipse
     style="display:inline;fill:#9a0026;fill-opacity:1;stroke:#9b4400;stroke-width:0;stroke-linecap:round;stroke-linejoin:round;stroke-dasharray:none;stroke-opacity:1;paint-order:stroke fill markers"
     id="path1"
     cx="6.2312531"
     cy="2.7094147"
     rx="3.5898986"
     ry="0.93395746" />
  <g
     id="g17"
     transform="matrix(0.09221727,0,0,0.09221727,-8.0263227,-16.292499)"
     style="display:inline">
    <ellipse
       style="display:inline;fill:#0aa344;fill-opacity:1;stroke:#000009;stroke-width:0;stroke-linecap:round;stroke-linejoin:round;stroke-dasharray:none;paint-order:stroke fill markers"
       id="path16"
       cx="256.12851"
       cy="19.744579"
       rx="5.5665631"
       ry="16.941715"
       transform="rotate(45)" />
    <ellipse
       style="display:inline;fill:#0aa344;fill-opacity:1;stroke:#000009;stroke-width:0;stroke-linecap:round;stroke-linejoin:round;stroke-dasharray:none;paint-order:stroke fill markers"
       id="ellipse16"
       cx="-37.479038"
       cy="238.39404"
       rx="5.5665631"
       ry="16.941715"
       transform="rotate(-45)" />
  </g>
  <path
     id="ellipse1-1-3"
     style="display:inline;fill:#ffdc22;fill-opacity:1;stroke:#000009;stroke-width:0;stroke-linecap:round;stroke-linejoin:round;paint-order:stroke fill markers"
     d="m 2.6786381,4.3080449 0.037577,1.2717152 A 3.5447675,0.9414031 0 0 0 6.2351266,6.4411899 3.5447675,0.9414031 0 0 0 9.7464755,5.6030952 L 9.7859167,4.3622749 A 3.5579059,0.93395685 0 0 1 6.2408235,5.2407965 3.5579059,0.93395685 0 0 1 2.6832397,4.3080449 Z" />
  <path
     id="ellipse1-0-1"
     style="display:inline;fill:#ffdd24;fill-opacity:1;stroke:#000009;stroke-width:0;stroke-linecap:round;stroke-linejoin:round;paint-order:stroke fill markers"
     d="m 2.808772,8.8836248 0.039601,1.3387692 c 0.1854928,0.47993 1.6432799,0.844046 3.3820132,0.844733 1.7004063,-4.4e-4 3.1322429,-0.314238 3.3642852,-0.781868 l 0.050394,-1.4016342 h -0.00364 c 4.4e-4,0.00316 6.284e-4,0.00632 8.25e-4,0.00948 -3.85e-5,0.5196378 -1.5284921,0.9408797 -3.4139128,0.9408753 -1.8854216,4.4e-6 -3.4138751,-0.4212375 -3.4139124,-0.9408753 8.456e-4,-0.00316 0.00178,-0.00632 0.00275,-0.00948 z" />
</svg>
