<?xml version="1.0" encoding="UTF-8" standalone="no"?>
<!-- Created with Inkscape (http://www.inkscape.org/) -->

<svg
   width="300"
   height="150"
   viewBox="0 0 79.375 39.6875"
   version="1.1"
   id="svg1"
   xmlns="http://www.w3.org/2000/svg"
   xmlns:svg="http://www.w3.org/2000/svg">
  <defs
     id="defs1" />
  <text
     xml:space="preserve"
     id="text1"
     style="font-style:normal;font-variant:normal;font-weight:bold;font-stretch:normal;font-size:11.2889px;font-family:'Source Han Sans CN';-inkscape-font-specification:'Source Han Sans CN, Bold';font-variant-ligatures:normal;font-variant-caps:normal;font-variant-numeric:normal;font-variant-east-asian:normal;white-space:pre;display:inline;fill:#d2691e;fill-opacity:1;stroke:#9b4400;stroke-width:0;stroke-linecap:round;stroke-linejoin:round;paint-order:stroke fill markers"
     x="-343.69901"
     y="-204.12747"><tspan
       x="34.697479"
       y="17.515726"
       id="tspan3"
       style="font-style:normal;font-variant:normal;font-weight:bold;font-stretch:normal;font-size:11.2889px;font-family:'Source Han Sans CN';-inkscape-font-specification:'Source Han Sans CN, Bold';font-variant-ligatures:normal;font-variant-caps:normal;font-variant-numeric:normal;font-variant-east-asian:normal">Paozhu</tspan></text>
  <text
     xml:space="preserve"
     style="font-style:normal;font-variant:normal;font-weight:bold;font-stretch:normal;font-size:6.56239px;font-family:'Source Han Sans CN';-inkscape-font-specification:'Source Han Sans CN, Bold';font-variant-ligatures:normal;font-variant-caps:normal;font-variant-numeric:normal;font-variant-east-asian:normal;fill:#be002f;fill-opacity:1;stroke:#9b4400;stroke-width:0;stroke-linecap:round;stroke-linejoin:round;paint-order:stroke fill markers"
     x="48.65213"
     y="31.927584"
     id="text2"><tspan
       id="tspan2"
       style="font-style:normal;font-variant:normal;font-weight:bold;font-stretch:normal;font-size:6.56239px;font-family:'Source Han Sans CN';-inkscape-font-specification:'Source Han Sans CN, Bold';font-variant-ligatures:normal;font-variant-caps:normal;font-variant-numeric:normal;font-variant-east-asian:normal;fill:#be002f;fill-opacity:1;stroke-width:0"
       x="48.65213"
       y="31.927584">炮竹</tspan></text>
  <path
     id="ellipse1"
     style="display:inline;fill:#be002f;fill-opacity:1;stroke:#000009;stroke-width:0;stroke-linecap:round;stroke-linejoin:round;paint-order:stroke fill markers"
     d="M 3.8435168,7.9359799 4.6710847,35.917112 v 0.02257 h 0.00642 c 0.050595,1.689936 4.501857,3.053086 10.9976773,3.053831 6.495753,-4.84e-4 10.88418,-1.363928 10.935061,-3.053831 h 0.0064 v -0.02257 L 27.506714,7.9359799 Z" />
  <ellipse
     style="display:inline;fill:#8a0022;fill-opacity:1;stroke:#9b4400;stroke-width:0;stroke-linecap:round;stroke-linejoin:round;stroke-dasharray:none;stroke-opacity:1;paint-order:stroke fill markers"
     id="path1"
     cx="15.67423"
     cy="7.7993207"
     rx="11.83085"
     ry="3.0779445" />
  <g
     id="g17"
     transform="matrix(0.30391068,0,0,0.30391068,-31.312871,-54.823236)"
     style="display:inline">
    <ellipse
       style="display:inline;fill:#0aa344;fill-opacity:1;stroke:#000009;stroke-width:0;stroke-linecap:round;stroke-linejoin:round;stroke-dasharray:none;paint-order:stroke fill markers"
       id="path16"
       cx="256.12851"
       cy="19.744579"
       rx="5.5665631"
       ry="16.941715"
       transform="rotate(45)" />
    <ellipse
       style="display:inline;fill:#0aa344;fill-opacity:1;stroke:#000009;stroke-width:0;stroke-linecap:round;stroke-linejoin:round;stroke-dasharray:none;paint-order:stroke fill markers"
       id="ellipse16"
       cx="-37.479038"
       cy="238.39404"
       rx="5.5665631"
       ry="16.941715"
       transform="rotate(-45)" />
  </g>
  <path
     id="ellipse1-1-3"
     style="display:inline;fill:#ffd700;fill-opacity:1;stroke:#000009;stroke-width:0;stroke-linecap:round;stroke-linejoin:round;paint-order:stroke fill markers"
     d="m 3.979532,12.9131 0.103762,3.511953 a 11.610351,2.9309464 0 0 0 11.563713,2.765293 11.610351,2.9309464 0 0 0 11.578441,-2.798551 h 0.04446 L 27.380761,12.9131 h -0.04094 A 11.683851,3.0289452 0 0 1 15.671055,15.877315 11.683851,3.0289452 0 0 1 4.0023229,12.9131 Z" />
  <path
     id="ellipse1-0-1"
     style="display:inline;fill:#ffd700;fill-opacity:1;stroke:#000009;stroke-width:0;stroke-linecap:round;stroke-linejoin:round;paint-order:stroke fill markers"
     d="m 4.4159965,28.859195 0.090915,3.060051 a 11.164446,2.9045709 0 0 0 11.1252305,2.753708 11.164446,2.9045709 0 0 0 11.134725,-2.776687 h 0.02347 l 0.108652,-3.025209 A 11.240883,2.6788512 0 0 1 15.671473,31.497386 11.240883,2.6788512 0 0 1 4.4410878,28.859195 Z" />
</svg>
