<?xml version="1.0" encoding="UTF-8" standalone="no"?>
<!-- Created with Inkscape (http://www.inkscape.org/) -->

<svg
   width="293.59369"
   height="150.05901"
   viewBox="0 0 77.679997 39.703112"
   version="1.1"
   id="svg1"
   xmlns="http://www.w3.org/2000/svg"
   xmlns:svg="http://www.w3.org/2000/svg">
  <defs
     id="defs1">
    <rect
       x="378.3967"
       y="152.91374"
       width="282.50165"
       height="114.03737"
       id="rect1" />
  </defs>
  <text
     xml:space="preserve"
     transform="matrix(0.16952874,0,0,0.16952874,-30.281771,-18.376237)"
     id="text1"
     style="font-weight:bold;font-size:68.3872px;font-family:'Source Han Sans CN';-inkscape-font-specification:'Source Han Sans CN Bold';white-space:pre;shape-inside:url(#rect1);display:inline;fill:#d2691e;fill-opacity:1;stroke:#9b4400;stroke-width:0;stroke-linecap:round;stroke-linejoin:round;paint-order:stroke fill markers"><tspan
       x="378.39648"
       y="221.6432"
       id="tspan3">Paozhu</tspan></text>
  <text
     xml:space="preserve"
     style="font-style:normal;font-variant:normal;font-weight:bold;font-stretch:normal;font-size:6.56239px;font-family:'Source Han Sans CN';-inkscape-font-specification:'Source Han Sans CN, Bold';font-variant-ligatures:normal;font-variant-caps:normal;font-variant-numeric:normal;font-variant-east-asian:normal;fill:#be002f;fill-opacity:1;stroke:#9b4400;stroke-width:0;stroke-linecap:round;stroke-linejoin:round;paint-order:stroke fill markers"
     x="48.375282"
     y="31.927584"
     id="text2"><tspan
       id="tspan2"
       style="font-style:normal;font-variant:normal;font-weight:bold;font-stretch:normal;font-size:6.56239px;font-family:'Source Han Sans CN';-inkscape-font-specification:'Source Han Sans CN, Bold';font-variant-ligatures:normal;font-variant-caps:normal;font-variant-numeric:normal;font-variant-east-asian:normal;fill:#be002f;fill-opacity:1;stroke-width:0"
       x="48.375282"
       y="31.927584">炮竹</tspan></text>
  <path
     id="ellipse1"
     style="display:inline;fill:#be002f;fill-opacity:1;stroke:#000009;stroke-width:0;stroke-linecap:round;stroke-linejoin:round;paint-order:stroke fill markers"
     d="M 3.1118676,8.7525729 3.9108567,35.767717 v 0.02334 h 0.0054 c 0.049107,1.631572 4.3464678,2.94769 10.6180193,2.948412 6.271484,-6.75e-4 10.508411,-1.316853 10.557518,-2.948412 h 0.0054 v -0.02334 L 25.956519,8.7525729 Z" />
  <ellipse
     style="display:inline;fill:#8a0022;fill-opacity:1;stroke:#9b4400;stroke-width:0;stroke-linecap:round;stroke-linejoin:round;stroke-dasharray:none;stroke-opacity:1;paint-order:stroke fill markers"
     id="path1"
     cx="14.534293"
     cy="8.6206913"
     rx="11.422403"
     ry="2.9716825" />
  <g
     id="g17"
     transform="matrix(0.29341856,0,0,0.29341856,-30.830719,-51.839947)"
     style="display:inline">
    <ellipse
       style="display:inline;fill:#0aa344;fill-opacity:1;stroke:#000009;stroke-width:0;stroke-linecap:round;stroke-linejoin:round;stroke-dasharray:none;paint-order:stroke fill markers"
       id="path16"
       cx="256.12851"
       cy="19.744579"
       rx="5.5665631"
       ry="16.941715"
       transform="rotate(45)" />
    <ellipse
       style="display:inline;fill:#0aa344;fill-opacity:1;stroke:#000009;stroke-width:0;stroke-linecap:round;stroke-linejoin:round;stroke-dasharray:none;paint-order:stroke fill markers"
       id="ellipse16"
       cx="-37.479038"
       cy="238.39404"
       rx="5.5665631"
       ry="16.941715"
       transform="rotate(-45)" />
  </g>
  <path
     id="ellipse1-1-3"
     style="display:inline;fill:#ffd700;fill-opacity:1;stroke:#000009;stroke-width:0;stroke-linecap:round;stroke-linejoin:round;paint-order:stroke fill markers"
     d="m 3.2431927,13.557897 0.1003922,3.390682 a 11.209519,2.8297594 0 0 0 11.1644611,2.669809 11.209519,2.8297594 0 0 0 11.178746,-2.701877 h 0.0429 l 0.107017,-3.358614 h -0.03939 a 11.28048,2.9243748 0 0 1 -11.2659,2.861881 11.28048,2.9243748 0 0 1 -11.2658966,-2.861881 z" />
  <path
     id="ellipse1-0-1"
     style="display:inline;fill:#ffd700;fill-opacity:1;stroke:#000009;stroke-width:0;stroke-linecap:round;stroke-linejoin:round;paint-order:stroke fill markers"
     d="m 3.6646318,28.953463 0.094815,3.192687 A 10.785795,2.8209069 0 0 0 14.532093,34.916696 10.785795,2.8209069 0 0 0 25.249669,32.350769 L 25.371324,28.96497 A 10.852807,2.5863674 0 0 1 14.531398,31.50057 10.852807,2.5863674 0 0 1 3.6886863,28.953463 Z" />
</svg>
