<?xml version="1.0" encoding="UTF-8" standalone="no"?>
<!-- Created with Inkscape (http://www.inkscape.org/) -->

<svg
   width="77.68mm"
   height="39.702999mm"
   viewBox="0 0 77.68 39.702999"
   version="1.1"
   id="svg1"
   xmlns="http://www.w3.org/2000/svg"
   xmlns:svg="http://www.w3.org/2000/svg">
  <defs
     id="defs1">
    <rect
       x="378.3967"
       y="152.91374"
       width="282.50165"
       height="114.03737"
       id="rect1" />
  </defs>
  <g
     id="layer1"
     transform="translate(-37.63492,-34.867705)">
    <text
       xml:space="preserve"
       transform="matrix(0.16952874,0,0,0.16952874,7.353149,16.491468)"
       id="text1"
       style="font-weight:bold;font-size:68.3872px;font-family:'Source Han Sans CN';-inkscape-font-specification:'Source Han Sans CN Bold';white-space:pre;shape-inside:url(#rect1);display:inline;fill:#d2691e;fill-opacity:1;stroke:#9b4400;stroke-width:0;stroke-linecap:round;stroke-linejoin:round;paint-order:stroke fill markers"><tspan
         x="378.39648"
         y="221.6432"
         id="tspan3">Paozhu</tspan></text>
    <text
       xml:space="preserve"
       style="font-style:normal;font-variant:normal;font-weight:bold;font-stretch:normal;font-size:6.56239px;font-family:'Source Han Sans CN';-inkscape-font-specification:'Source Han Sans CN, Bold';font-variant-ligatures:normal;font-variant-caps:normal;font-variant-numeric:normal;font-variant-east-asian:normal;fill:#be002f;fill-opacity:1;stroke:#9b4400;stroke-width:0;stroke-linecap:round;stroke-linejoin:round;paint-order:stroke fill markers"
       x="86.010201"
       y="66.795288"
       id="text2"><tspan
         id="tspan2"
         style="font-style:normal;font-variant:normal;font-weight:bold;font-stretch:normal;font-size:6.56239px;font-family:'Source Han Sans CN';-inkscape-font-specification:'Source Han Sans CN, Bold';font-variant-ligatures:normal;font-variant-caps:normal;font-variant-numeric:normal;font-variant-east-asian:normal;fill:#be002f;fill-opacity:1;stroke-width:0"
         x="86.010201"
         y="66.795288">炮竹</tspan></text>
    <path
       id="ellipse1"
       style="display:inline;fill:#be002f;fill-opacity:1;stroke:#000009;stroke-width:0;stroke-linecap:round;stroke-linejoin:round;paint-order:stroke fill markers"
       d="m 42.329868,43.294689 v 26.255429 0.0227 h 0.0053 a 11.101185,2.8881132 0 0 0 11.095933,2.865495 11.101185,2.8881132 0 0 0 11.095784,-2.865495 h 0.0053 v -0.0227 -26.255429 z" />
    <ellipse
       style="display:inline;fill:#8a0022;fill-opacity:1;stroke:#9b4400;stroke-width:0;stroke-linecap:round;stroke-linejoin:round;stroke-dasharray:none;stroke-opacity:1;paint-order:stroke fill markers"
       id="path1"
       cx="53.431068"
       cy="43.166512"
       rx="11.101184"
       ry="2.8881133" />
    <path
       id="rect2-3"
       style="display:inline;fill:#ffd700;fill-opacity:1;stroke:#000009;stroke-width:0;stroke-linecap:round;stroke-linejoin:round;paint-order:stroke fill markers"
       d="m 42.329884,47.49897 v 2.57077 0.278814 h 0.06484 a 11.101185,2.8881132 0 0 0 11.036394,2.609375 11.101185,2.8881132 0 0 0 11.03625,-2.609375 h 0.06469 v -0.278226 a 11.101185,2.8881132 0 0 0 1.45e-4,-5.99e-4 11.101185,2.8881132 0 0 0 -1.45e-4,-0.0016 v -2.569147 h -0.06469 a 11.101185,2.8881132 0 0 1 -11.03625,2.609379 11.101185,2.8881132 0 0 1 -11.036394,-2.609379 z" />
    <path
       id="path3"
       style="display:inline;fill:#ffd700;fill-opacity:1;stroke:#000009;stroke-width:0;stroke-linecap:round;stroke-linejoin:round;paint-order:stroke fill markers"
       d="m 42.329884,62.757116 v 2.57077 0.278813 h 0.06484 a 11.101185,2.8881132 0 0 0 11.036394,2.609376 11.101185,2.8881132 0 0 0 11.03625,-2.609376 h 0.06469 v -0.278226 a 11.101185,2.8881132 0 0 0 1.45e-4,-5.7e-4 11.101185,2.8881132 0 0 0 -1.45e-4,-0.0017 v -2.569147 h -0.06469 A 11.101185,2.8881132 0 0 1 53.431119,65.366423 11.101185,2.8881132 0 0 1 42.394725,62.757045 Z" />
    <g
       id="g17"
       transform="matrix(0.28516706,0,0,0.28516706,9.3418118,-15.59385)">
      <ellipse
         style="fill:#0aa344;fill-opacity:1;stroke:#000009;stroke-width:0;stroke-linecap:round;stroke-linejoin:round;stroke-dasharray:none;paint-order:stroke fill markers"
         id="path16"
         cx="256.12851"
         cy="19.744579"
         rx="5.5665631"
         ry="16.941715"
         transform="rotate(45)" />
      <ellipse
         style="fill:#0aa344;fill-opacity:1;stroke:#000009;stroke-width:0;stroke-linecap:round;stroke-linejoin:round;stroke-dasharray:none;paint-order:stroke fill markers"
         id="ellipse16"
         cx="-37.479038"
         cy="238.39404"
         rx="5.5665631"
         ry="16.941715"
         transform="rotate(-45)" />
    </g>
  </g>
</svg>
