<?xml version="1.0" encoding="UTF-8" standalone="no"?>
<!-- Created with Inkscape (http://www.inkscape.org/) -->

<svg
   width="77.68mm"
   height="39.702999mm"
   viewBox="0 0 77.68 39.702999"
   version="1.1"
   id="svg1"
   xmlns="http://www.w3.org/2000/svg"
   xmlns:svg="http://www.w3.org/2000/svg">
  <defs
     id="defs1">
    <rect
       x="378.3967"
       y="152.91374"
       width="282.50165"
       height="114.03737"
       id="rect1" />
  </defs>
  <g
     id="layer1"
     transform="translate(-37.63492,-34.867705)">
    <path
       id="ellipse1"
       style="display:inline;fill:#be002f;fill-opacity:1;stroke:#000009;stroke-width:0;stroke-linecap:round;stroke-linejoin:round;paint-order:stroke fill markers"
       d="m 39.222421,42.577547 v 27.497269 0.02378 h 0.0056 a 11.626255,3.0247168 0 0 0 11.62075,3.001029 11.626255,3.0247168 0 0 0 11.620601,-3.001029 h 0.0058 v -0.02378 -27.497269 z" />
    <ellipse
       style="display:inline;fill:#8a0022;fill-opacity:1;stroke:#9b4400;stroke-width:0;stroke-linecap:round;stroke-linejoin:round;stroke-dasharray:none;stroke-opacity:1;paint-order:stroke fill markers"
       id="path1"
       cx="50.848694"
       cy="42.443302"
       rx="11.626254"
       ry="3.0247169" />
    <path
       id="rect2-3"
       style="display:inline;fill:#f2be45;fill-opacity:1;stroke:#000009;stroke-width:0;stroke-linecap:round;stroke-linejoin:round;paint-order:stroke fill markers"
       d="m 39.222437,46.98068 v 2.692364 0.291999 h 0.06791 a 11.626255,3.0247168 0 0 0 11.5584,2.7328 11.626255,3.0247168 0 0 0 11.55825,-2.7328 h 0.06775 V 49.67366 a 11.626255,3.0247168 0 0 0 1.51e-4,-5.81e-4 11.626255,3.0247168 0 0 0 -1.51e-4,-0.0017 v -2.690667 h -0.06775 a 11.626255,3.0247168 0 0 1 -11.55825,2.7328 11.626255,3.0247168 0 0 1 -11.5584,-2.7328 z" />
    <path
       id="path3"
       style="display:inline;fill:#f2be45;fill-opacity:1;stroke:#000009;stroke-width:0;stroke-linecap:round;stroke-linejoin:round;paint-order:stroke fill markers"
       d="m 39.222437,62.960514 v 2.692364 0.291999 h 0.06791 a 11.626255,3.0247168 0 0 0 11.5584,2.7328 11.626255,3.0247168 0 0 0 11.55825,-2.7328 h 0.06775 v -0.291383 a 11.626255,3.0247168 0 0 0 1.51e-4,-5.82e-4 11.626255,3.0247168 0 0 0 -1.51e-4,-0.0017 v -2.690666 h -0.06775 a 11.626255,3.0247168 0 0 1 -11.55825,2.7328 11.626255,3.0247168 0 0 1 -11.5584,-2.7328 z" />
    <g
       id="g17"
       transform="matrix(0.29865505,0,0,0.29865505,4.6740761,-19.096338)">
      <ellipse
         style="fill:#0aa344;fill-opacity:1;stroke:#000009;stroke-width:0;stroke-linecap:round;stroke-linejoin:round;stroke-dasharray:none;paint-order:stroke fill markers"
         id="path16"
         cx="256.12851"
         cy="19.744579"
         rx="5.5665631"
         ry="16.941715"
         transform="rotate(45)" />
      <ellipse
         style="fill:#0aa344;fill-opacity:1;stroke:#000009;stroke-width:0;stroke-linecap:round;stroke-linejoin:round;stroke-dasharray:none;paint-order:stroke fill markers"
         id="ellipse16"
         cx="-37.479038"
         cy="238.39404"
         rx="5.5665631"
         ry="16.941715"
         transform="rotate(-45)" />
    </g>
    <text
       xml:space="preserve"
       transform="matrix(0.16952874,0,0,0.16952874,7.353149,16.491468)"
       id="text1"
       style="font-weight:bold;font-size:68.3872px;font-family:'Source Han Sans CN';-inkscape-font-specification:'Source Han Sans CN Bold';white-space:pre;shape-inside:url(#rect1);display:inline;fill:#ff7500;fill-opacity:1;stroke:#9b4400;stroke-width:0;stroke-linecap:round;stroke-linejoin:round;paint-order:stroke fill markers"><tspan
         x="378.39648"
         y="221.6432"
         id="tspan3">Paozhu</tspan></text>
    <text
       xml:space="preserve"
       style="font-style:normal;font-variant:normal;font-weight:bold;font-stretch:normal;font-size:6.56239px;font-family:'Source Han Sans CN';-inkscape-font-specification:'Source Han Sans CN, Bold';font-variant-ligatures:normal;font-variant-caps:normal;font-variant-numeric:normal;font-variant-east-asian:normal;fill:#be002f;fill-opacity:1;stroke:#9b4400;stroke-width:0;stroke-linecap:round;stroke-linejoin:round;paint-order:stroke fill markers"
       x="86.010201"
       y="66.795288"
       id="text2"><tspan
         id="tspan2"
         style="font-style:normal;font-variant:normal;font-weight:bold;font-stretch:normal;font-size:6.56239px;font-family:'Source Han Sans CN';-inkscape-font-specification:'Source Han Sans CN, Bold';font-variant-ligatures:normal;font-variant-caps:normal;font-variant-numeric:normal;font-variant-east-asian:normal;fill:#be002f;fill-opacity:1;stroke-width:0"
         x="86.010201"
         y="66.795288">炮竹</tspan></text>
  </g>
</svg>
