<?xml version="1.0" encoding="UTF-8" standalone="no"?>
<!-- Created with Inkscape (http://www.inkscape.org/) -->

<svg
   width="293.59369"
   height="150.05901"
   viewBox="0 0 77.679997 39.703112"
   version="1.1"
   id="svg1"
   xmlns="http://www.w3.org/2000/svg"
   xmlns:svg="http://www.w3.org/2000/svg">
  <defs
     id="defs1">
    <rect
       x="378.3967"
       y="152.91374"
       width="282.50165"
       height="114.03737"
       id="rect1" />
  </defs>
  <text
     xml:space="preserve"
     transform="matrix(0.16952874,0,0,0.16952874,-30.281771,-18.376237)"
     id="text1"
     style="font-weight:bold;font-size:68.3872px;font-family:'Source Han Sans CN';-inkscape-font-specification:'Source Han Sans CN Bold';white-space:pre;shape-inside:url(#rect1);display:inline;fill:#d2691e;fill-opacity:1;stroke:#9b4400;stroke-width:0;stroke-linecap:round;stroke-linejoin:round;paint-order:stroke fill markers"><tspan
       x="378.39648"
       y="221.6432"
       id="tspan1">Paozhu</tspan></text>
  <text
     xml:space="preserve"
     style="font-style:normal;font-variant:normal;font-weight:bold;font-stretch:normal;font-size:6.56239px;font-family:'Source Han Sans CN';-inkscape-font-specification:'Source Han Sans CN, Bold';font-variant-ligatures:normal;font-variant-caps:normal;font-variant-numeric:normal;font-variant-east-asian:normal;fill:#be002f;fill-opacity:1;stroke:#9b4400;stroke-width:0;stroke-linecap:round;stroke-linejoin:round;paint-order:stroke fill markers"
     x="48.375282"
     y="31.927584"
     id="text2"><tspan
       id="tspan2"
       style="font-style:normal;font-variant:normal;font-weight:bold;font-stretch:normal;font-size:6.56239px;font-family:'Source Han Sans CN';-inkscape-font-specification:'Source Han Sans CN, Bold';font-variant-ligatures:normal;font-variant-caps:normal;font-variant-numeric:normal;font-variant-east-asian:normal;fill:#be002f;fill-opacity:1;stroke-width:0"
       x="48.375282"
       y="31.927584">炮竹</tspan></text>
  <path
     id="ellipse1"
     style="display:inline;fill:#be002f;fill-opacity:1;stroke:#000009;stroke-width:0;stroke-linecap:round;stroke-linejoin:round;paint-order:stroke fill markers"
     d="M 3.3677945,8.5062532 4.1667836,35.5214 v 0.02334 h 0.0054 c 0.049114,1.631573 4.3464661,2.94769 10.6180184,2.948412 6.271484,-6.74e-4 10.508412,-1.316853 10.557519,-2.948412 h 0.0054 V 35.5214 L 26.212439,8.5062532 Z" />
  <ellipse
     style="display:inline;fill:#8a0022;fill-opacity:1;stroke:#9b4400;stroke-width:0;stroke-linecap:round;stroke-linejoin:round;stroke-dasharray:none;stroke-opacity:1;paint-order:stroke fill markers"
     id="path1"
     cx="14.790218"
     cy="8.3743658"
     rx="11.422404"
     ry="2.9716828" />
  <g
     id="g17"
     transform="matrix(0.29341858,0,0,0.29341858,-30.574796,-52.086271)"
     style="display:inline">
    <ellipse
       style="display:inline;fill:#0aa344;fill-opacity:1;stroke:#000009;stroke-width:0;stroke-linecap:round;stroke-linejoin:round;stroke-dasharray:none;paint-order:stroke fill markers"
       id="path16"
       cx="256.12851"
       cy="19.744579"
       rx="5.5665631"
       ry="16.941715"
       transform="rotate(45)" />
    <ellipse
       style="display:inline;fill:#0aa344;fill-opacity:1;stroke:#000009;stroke-width:0;stroke-linecap:round;stroke-linejoin:round;stroke-dasharray:none;paint-order:stroke fill markers"
       id="ellipse16"
       cx="-37.479038"
       cy="238.39404"
       rx="5.5665631"
       ry="16.941715"
       transform="rotate(-45)" />
  </g>
  <path
     id="ellipse1-1-3"
     style="display:inline;fill:#ffd700;fill-opacity:1;stroke:#000009;stroke-width:0;stroke-linecap:round;stroke-linejoin:round;paint-order:stroke fill markers"
     d="m 3.4864421,13.460918 0.1195644,4.046366 A 11.278806,2.9953735 0 0 0 14.802542,20.248197 11.278806,2.9953735 0 0 0 25.975016,17.581532 L 26.10051,13.633467 A 11.32061,2.971681 0 0 1 14.820668,16.428763 11.32061,2.971681 0 0 1 3.5010825,13.460918 Z" />
  <path
     id="ellipse1-0-1"
     style="display:inline;fill:#ffd700;fill-opacity:1;stroke:#000009;stroke-width:0;stroke-linecap:round;stroke-linejoin:round;paint-order:stroke fill markers"
     d="m 3.9005043,28.019581 0.1260056,4.259721 c 0.5902032,1.52705 5.2286167,2.6856 10.7609501,2.687785 5.410384,-0.0014 9.966227,-0.999847 10.704544,-2.487761 l 0.160348,-4.459745 h -0.01161 c 0.0014,0.01005 0.002,0.0201 0.0027,0.03015 -1.22e-4,1.653393 -4.863384,2.993708 -10.86245,2.993694 -5.9990689,1.4e-5 -10.8623302,-1.340301 -10.8624488,-2.993694 0.00269,-0.01005 0.00567,-0.0201 0.00875,-0.03015 z" />
</svg>
