<svg xmlns="http://www.w3.org/2000/svg" width="800" height="500" viewBox="0 0 800 500">
<rect width="100%" height="100%" fill="white"/>
<text x="400" y="30" text-anchor="middle" fill="#333" font-size="16" font-weight="bold" font-family="Arial, sans-serif">Multivariate Linear Regression - House Price</text>
<line x1="60" y1="50" x2="60" y2="460" stroke="#333" stroke-width="1"/>
<line x1="60" y1="460" x2="780" y2="460" stroke="#333" stroke-width="1"/>
<line x1="60" y1="460" x2="780" y2="460" stroke="#e0e0e0" stroke-width="1"/>
<line x1="56" y1="460" x2="60" y2="460" stroke="#999" stroke-width="1"/>
<text x="52" y="464" text-anchor="end" fill="#666" font-size="11" font-family="Arial, sans-serif">118</text>
<line x1="60" y1="378" x2="780" y2="378" stroke="#e0e0e0" stroke-width="1"/>
<line x1="56" y1="378" x2="60" y2="378" stroke="#999" stroke-width="1"/>
<text x="52" y="382" text-anchor="end" fill="#666" font-size="11" font-family="Arial, sans-serif">214</text>
<line x1="60" y1="296" x2="780" y2="296" stroke="#e0e0e0" stroke-width="1"/>
<line x1="56" y1="296" x2="60" y2="296" stroke="#999" stroke-width="1"/>
<text x="52" y="300" text-anchor="end" fill="#666" font-size="11" font-family="Arial, sans-serif">311</text>
<line x1="60" y1="214" x2="780" y2="214" stroke="#e0e0e0" stroke-width="1"/>
<line x1="56" y1="214" x2="60" y2="214" stroke="#999" stroke-width="1"/>
<text x="52" y="218" text-anchor="end" fill="#666" font-size="11" font-family="Arial, sans-serif">407</text>
<line x1="60" y1="132" x2="780" y2="132" stroke="#e0e0e0" stroke-width="1"/>
<line x1="56" y1="132" x2="60" y2="132" stroke="#999" stroke-width="1"/>
<text x="52" y="136" text-anchor="end" fill="#666" font-size="11" font-family="Arial, sans-serif">504</text>
<line x1="60" y1="50" x2="780" y2="50" stroke="#e0e0e0" stroke-width="1"/>
<line x1="56" y1="50" x2="60" y2="50" stroke="#999" stroke-width="1"/>
<text x="52" y="54" text-anchor="end" fill="#666" font-size="11" font-family="Arial, sans-serif">600</text>
<line x1="60" y1="460" x2="60" y2="464" stroke="#999" stroke-width="1"/>
<text x="60" y="480" text-anchor="middle" fill="#666" font-size="11" font-family="Arial, sans-serif">118</text>
<line x1="204" y1="460" x2="204" y2="464" stroke="#999" stroke-width="1"/>
<text x="204" y="480" text-anchor="middle" fill="#666" font-size="11" font-family="Arial, sans-serif">214</text>
<line x1="348" y1="460" x2="348" y2="464" stroke="#999" stroke-width="1"/>
<text x="348" y="480" text-anchor="middle" fill="#666" font-size="11" font-family="Arial, sans-serif">311</text>
<line x1="492" y1="460" x2="492" y2="464" stroke="#999" stroke-width="1"/>
<text x="492" y="480" text-anchor="middle" fill="#666" font-size="11" font-family="Arial, sans-serif">407</text>
<line x1="636" y1="460" x2="636" y2="464" stroke="#999" stroke-width="1"/>
<text x="636" y="480" text-anchor="middle" fill="#666" font-size="11" font-family="Arial, sans-serif">504</text>
<line x1="780" y1="460" x2="780" y2="464" stroke="#999" stroke-width="1"/>
<text x="780" y="480" text-anchor="middle" fill="#666" font-size="11" font-family="Arial, sans-serif">600</text>
<line x1="60" y1="460" x2="780" y2="50" stroke="#999" stroke-width="1" stroke-dasharray="5,5"/>
<circle cx="153.099" cy="414.432" r="6" fill="#5470c6"/>
<circle cx="227.691" cy="362.143" r="6" fill="#5470c6"/>
<circle cx="347.039" cy="297.278" r="6" fill="#5470c6"/>
<circle cx="421.631" cy="254" r="6" fill="#5470c6"/>
<circle cx="511.142" cy="207.718" r="6" fill="#5470c6"/>
<circle cx="540.979" cy="187.908" r="6" fill="#5470c6"/>
<circle cx="630.489" cy="141.626" r="6" fill="#5470c6"/>
<circle cx="720" cy="98.3481" r="6" fill="#5470c6"/>
<circle cx="182.936" cy="373.544" r="6" fill="#5470c6"/>
<circle cx="317.202" cy="302.672" r="6" fill="#5470c6"/>
<circle cx="391.794" cy="271.408" r="6" fill="#5470c6"/>
<circle cx="526.06" cy="185.517" r="6" fill="#5470c6"/>
<circle cx="615.571" cy="142.239" r="6" fill="#5470c6"/>
<circle cx="675.245" cy="101.965" r="6" fill="#5470c6"/>
<circle cx="123.262" cy="425.833" r="6" fill="#5470c6"/>
<circle cx="257.528" cy="361.275" r="6" fill="#5470c6"/>
<circle cx="361.957" cy="293.967" r="6" fill="#5470c6"/>
<circle cx="451.468" cy="241.678" r="6" fill="#5470c6"/>
<circle cx="496.223" cy="200.842" r="6" fill="#5470c6"/>
<circle cx="585.734" cy="157.564" r="6" fill="#5470c6"/>
<text x="770" y="70" text-anchor="end" fill="#ee6666" font-size="13" font-weight="bold" font-family="Arial, sans-serif">y = 80.72 + 2.19·x1 + 14.8·x2 - 3.54·x3</text>
<text x="770" y="88" text-anchor="end" fill="#666" font-size="12" font-family="Arial, sans-serif">R² = 0.9937</text>
</svg>
